<svg width="20" height="20" viewBox="0 0 20 20" fill="none" xmlns="http://www.w3.org/2000/svg">
<path d="M14.1667 14.9987V13.332M10 14.9987V12.4987M5.83333 14.9987V10.832M5 5.83203C7.66417 8.55536 11.0283 9.23286 14.2842 8.32536M13.0733 7.0587L14.8017 7.90536C15.0067 8.0062 15.0617 8.2387 14.925 8.42537L13.7725 9.9987" stroke="#E213CD" stroke-width="1.3" stroke-linecap="round" stroke-linejoin="round"/>
<path d="M2.0835 9.9987C2.0835 6.26703 2.0835 4.40036 3.24266 3.2412C4.40183 2.08203 6.26766 2.08203 10.0002 2.08203C13.7318 2.08203 15.5985 2.08203 16.7577 3.2412C17.9168 4.40036 17.9168 6.2662 17.9168 9.9987C17.9168 13.7304 17.9168 15.597 16.7577 16.7562C15.5985 17.9154 13.7327 17.9154 10.0002 17.9154C6.2685 17.9154 4.40183 17.9154 3.24266 16.7562C2.0835 15.597 2.0835 13.7312 2.0835 9.9987Z" stroke="#E213CD" stroke-width="1.5" stroke-linecap="round" stroke-linejoin="round"/>
</svg>
