<svg width="32" height="32" viewBox="0 0 32 32" fill="none" xmlns="http://www.w3.org/2000/svg">
<rect width="32" height="32" rx="16" fill="#FEFEFE"/>
<path d="M20.1667 20.9987V19.332M16 20.9987V18.4987M11.8333 20.9987V16.832M11 11.832C13.6642 14.5554 17.0283 15.2329 20.2842 14.3254M19.0733 13.0587L20.8017 13.9054C21.0067 14.0062 21.0617 14.2387 20.925 14.4254L19.7725 15.9987" stroke="#E213CD" stroke-width="1.3" stroke-linecap="round" stroke-linejoin="round"/>
<path d="M8.0835 15.9987C8.0835 12.267 8.0835 10.4004 9.24266 9.2412C10.4018 8.08203 12.2677 8.08203 16.0002 8.08203C19.7318 8.08203 21.5985 8.08203 22.7577 9.2412C23.9168 10.4004 23.9168 12.2662 23.9168 15.9987C23.9168 19.7304 23.9168 21.597 22.7577 22.7562C21.5985 23.9154 19.7327 23.9154 16.0002 23.9154C12.2685 23.9154 10.4018 23.9154 9.24266 22.7562C8.0835 21.597 8.0835 19.7312 8.0835 15.9987Z" stroke="#E213CD" stroke-width="1.5" stroke-linecap="round" stroke-linejoin="round"/>
</svg>
