<svg width="15" height="15" viewBox="0 0 15 15" fill="none" xmlns="http://www.w3.org/2000/svg">
<g clip-path="url(#clip0_3120_13784)">
<path d="M13.654 9.97683V11.7268C13.6547 11.8893 13.6214 12.0501 13.5563 12.1989C13.4912 12.3478 13.3958 12.4814 13.2761 12.5912C13.1563 12.7011 13.015 12.7847 12.8611 12.8367C12.7072 12.8888 12.5441 12.9081 12.3823 12.8935C10.5873 12.6985 8.8631 12.0851 7.34818 11.1027C5.93875 10.207 4.74379 9.01209 3.84818 7.60266C2.86233 6.08086 2.24882 4.34824 2.05735 2.54516C2.04277 2.38385 2.06194 2.22127 2.11364 2.06777C2.16534 1.91428 2.24843 1.77323 2.35763 1.65361C2.46682 1.53398 2.59973 1.43841 2.74789 1.37297C2.89605 1.30752 3.05621 1.27365 3.21818 1.27349H4.96818C5.25128 1.27071 5.52573 1.37096 5.74037 1.55555C5.95502 1.74015 6.09523 1.9965 6.13485 2.27683C6.20871 2.83687 6.34569 3.38675 6.54318 3.91599C6.62166 4.12478 6.63865 4.35169 6.59213 4.56984C6.5456 4.78799 6.43752 4.98823 6.28068 5.14683L5.53985 5.88766C6.37025 7.34806 7.57945 8.55725 9.03985 9.38766L9.78068 8.64683C9.93928 8.48999 10.1395 8.38191 10.3577 8.33538C10.5758 8.28886 10.8027 8.30584 11.0115 8.38433C11.5408 8.58181 12.0906 8.7188 12.6507 8.79266C12.934 8.83264 13.1928 8.97536 13.3778 9.1937C13.5628 9.41203 13.6611 9.69075 13.654 9.97683Z" stroke="#0A0B0A" stroke-width="0.900635" stroke-linecap="round" stroke-linejoin="round"/>
</g>
<defs>
<clipPath id="clip0_3120_13784">
<rect width="14" height="14" fill="white" transform="translate(0.820435 0.105469)"/>
</clipPath>
</defs>
</svg>
