<svg width="20" height="20" viewBox="0 0 20 20" fill="none" xmlns="http://www.w3.org/2000/svg">
<g clip-path="url(#clip0_347_29350)">
<path d="M4.16699 14.1667C4.16699 14.6087 4.34259 15.0326 4.65515 15.3452C4.96771 15.6577 5.39163 15.8333 5.83366 15.8333C6.27569 15.8333 6.69961 15.6577 7.01217 15.3452C7.32473 15.0326 7.50033 14.6087 7.50033 14.1667C7.50033 13.7246 7.32473 13.3007 7.01217 12.9882C6.69961 12.6756 6.27569 12.5 5.83366 12.5C5.39163 12.5 4.96771 12.6756 4.65515 12.9882C4.34259 13.3007 4.16699 13.7246 4.16699 14.1667Z" stroke="#343434" stroke-linecap="round" stroke-linejoin="round"/>
<path d="M12.5 14.1667C12.5 14.6087 12.6756 15.0326 12.9882 15.3452C13.3007 15.6577 13.7246 15.8333 14.1667 15.8333C14.6087 15.8333 15.0326 15.6577 15.3452 15.3452C15.6577 15.0326 15.8333 14.6087 15.8333 14.1667C15.8333 13.7246 15.6577 13.3007 15.3452 12.9882C15.0326 12.6756 14.6087 12.5 14.1667 12.5C13.7246 12.5 13.3007 12.6756 12.9882 12.9882C12.6756 13.3007 12.5 13.7246 12.5 14.1667Z" stroke="#343434" stroke-linecap="round" stroke-linejoin="round"/>
<path d="M4.16667 14.1665H2.5V4.99984C2.5 4.77882 2.5878 4.56686 2.74408 4.41058C2.90036 4.2543 3.11232 4.1665 3.33333 4.1665H10.8333V9.1665H6.66667M6.66667 9.1665L8.33333 10.8332M6.66667 9.1665L8.33333 7.49984" stroke="#343434" stroke-width="1.5" stroke-linecap="round" stroke-linejoin="round"/>
<path d="M7.5 14.1665H12.5" stroke="#343434" stroke-width="1.5" stroke-linecap="round" stroke-linejoin="round"/>
<path d="M10.833 5H14.9997L17.4997 9.16667V14.1667H15.833" stroke="#343434" stroke-width="1.5" stroke-linecap="round" stroke-linejoin="round"/>
</g>
<defs>
<clipPath id="clip0_347_29350">
<rect width="20" height="20" fill="white"/>
</clipPath>
</defs>
</svg>
