<?xml version="1.0" standalone="no"?>
<!DOCTYPE svg PUBLIC "-//W3C//DTD SVG 20010904//EN"
 "http://www.w3.org/TR/2001/REC-SVG-20010904/DTD/svg10.dtd">
<svg version="1.0" xmlns="http://www.w3.org/2000/svg"
 width="121.000000pt" height="120.000000pt" viewBox="0 0 121.000000 120.000000"
 preserveAspectRatio="xMidYMid meet">

<g transform="translate(0.000000,120.000000) scale(0.100000,-0.100000)"
fill="#000000" stroke="none">
<path d="M916 1002 c141 -91 224 -238 224 -398 0 -36 6 -68 14 -79 13 -19 15
-17 21 18 4 21 4 66 1 99 -19 161 -116 302 -258 374 -69 35 -70 30 -2 -14z"/>
<path d="M540 900 c-8 -5 -12 -11 -10 -14 3 -2 14 2 24 10 22 15 10 19 -14 4z"/>
<path d="M710 707 c153 -77 258 -155 337 -248 l51 -61 -28 -47 c-36 -57 -111
-130 -170 -165 -54 -31 -46 -34 13 -5 71 36 135 90 177 150 22 32 40 62 40 67
0 23 -149 161 -231 215 -78 52 -244 137 -265 137 -5 0 29 -20 76 -43z"/>
<path d="M335 672 c6 -4 10 -39 11 -77 1 -119 70 -232 173 -285 58 -29 59 -25
4 16 -93 70 -134 144 -141 254 -4 73 -17 100 -46 100 -7 0 -8 -3 -1 -8z"/>
</g>
</svg>
