<svg width="25" height="24" viewBox="0 0 25 24" fill="none" xmlns="http://www.w3.org/2000/svg">
<g clip-path="url(#clip0_229_1624)">
<path d="M19.5013 8.70977L14.1683 4.56177C13.7002 4.19768 13.1242 4 12.5312 4C11.9383 4 11.3623 4.19768 10.8942 4.56177L5.56025 8.70977C5.23969 8.95905 4.98034 9.2783 4.80201 9.64312C4.62367 10.0079 4.53106 10.4087 4.53125 10.8148V18.0148C4.53125 18.5452 4.74196 19.0539 5.11704 19.429C5.49211 19.8041 6.00082 20.0148 6.53125 20.0148H18.5313C19.0617 20.0148 19.5704 19.8041 19.9455 19.429C20.3205 19.0539 20.5312 18.5452 20.5312 18.0148V10.8148C20.5312 9.99177 20.1513 9.21477 19.5013 8.70977Z" stroke="#969595" stroke-width="1.5" stroke-linecap="round" stroke-linejoin="round"/>
<path d="M16.5 15C14.29 16.333 10.708 16.333 8.5 15" stroke="#969595" stroke-width="1.5" stroke-linecap="round" stroke-linejoin="round"/>
</g>
<defs>
<clipPath id="clip0_229_1624">
<rect width="24" height="24" fill="white" transform="translate(0.5)"/>
</clipPath>
</defs>
</svg>
