<svg width="20" height="20" viewBox="0 0 20 20" fill="none" xmlns="http://www.w3.org/2000/svg">
<path d="M4.16675 8.26904C4.16675 12.3122 7.70381 15.6558 9.26941 16.9377C9.49347 17.1211 9.60684 17.214 9.774 17.261C9.90417 17.2977 10.0957 17.2977 10.2259 17.261C10.3934 17.2139 10.506 17.122 10.7309 16.9378C12.2965 15.6559 15.8333 12.3126 15.8333 8.26941C15.8333 6.73932 15.2188 5.27171 14.1248 4.18977C13.0309 3.10783 11.5472 2.5 10.0001 2.5C8.45305 2.5 6.96925 3.10792 5.87529 4.18986C4.78133 5.2718 4.16675 6.73895 4.16675 8.26904Z" stroke="#7D7D7D" stroke-width="1.2" stroke-linecap="round" stroke-linejoin="round"/>
<path d="M8.33341 7.5C8.33341 8.42047 9.07961 9.16667 10.0001 9.16667C10.9206 9.16667 11.6667 8.42047 11.6667 7.5C11.6667 6.57953 10.9206 5.83333 10.0001 5.83333C9.07961 5.83333 8.33341 6.57953 8.33341 7.5Z" stroke="#7D7D7D" stroke-width="1.2" stroke-linecap="round" stroke-linejoin="round"/>
</svg>
