<svg width="20" height="20" viewBox="0 0 20 20" fill="none" xmlns="http://www.w3.org/2000/svg">
<path d="M1.6665 8.33281H18.3332M3.33317 8.33281L3.75317 12.952C3.94984 15.112 4.04734 16.1911 4.764 16.8453C5.47984 17.4995 6.564 17.4995 8.73234 17.4995H11.2673C13.4357 17.4995 14.5198 17.4995 15.2357 16.8453C15.9523 16.1911 16.0498 15.112 16.2465 12.952L16.6665 8.33281M3.33317 6.66614L7.49984 5.54114M7.49984 5.54114L12.4998 4.19031M7.49984 5.54114L7.6715 4.09281C7.70119 3.83465 7.80757 3.59131 7.9769 3.39419C8.14624 3.19708 8.37077 3.05524 8.6215 2.98698L10.2623 2.54364C10.5125 2.4769 10.777 2.4869 11.0215 2.57234C11.2659 2.65779 11.479 2.81473 11.6332 3.02281L12.4998 4.19031M12.4998 4.19031L16.6665 3.06531" stroke="#7C7C7C" stroke-width="1.5" stroke-linecap="round" stroke-linejoin="round"/>
</svg>
