<svg width="20" height="20" viewBox="0 0 20 20" fill="none" xmlns="http://www.w3.org/2000/svg">
<path d="M2.48068 8.76353V12.5085C2.48068 14.8627 2.48068 16.0394 3.21401 16.771C3.94651 17.5027 5.12651 17.5027 7.48568 17.5027H10.8232M5.81735 14.1735H9.15485M15.4115 14.1735H15.4198M15.4115 11.2594C17.024 11.2594 18.3315 12.5394 18.3315 14.1177C18.3315 15.9044 16.5665 16.7819 15.724 18.1202C15.5448 18.406 15.2907 18.406 15.099 18.1202C14.2307 16.8327 12.4915 15.8669 12.4915 14.1185C12.4915 12.5394 13.799 11.2594 15.4115 11.2594ZM14.8298 1.67019L5.12485 1.69269C3.67651 1.62186 3.30485 2.67769 3.30485 3.19269C3.30485 3.65436 3.24235 4.32686 2.35485 5.59103C1.46651 6.85519 1.53318 7.23019 2.03318 8.10519C2.44818 8.83186 3.50485 9.11519 4.05651 9.16352C4.38545 9.17985 4.71434 9.1305 5.024 9.01834C5.33365 8.90619 5.61787 8.73348 5.86006 8.5103C6.10225 8.28711 6.29756 8.01793 6.43459 7.71845C6.57162 7.41897 6.64763 7.0952 6.65818 6.76602C7.52651 9.29103 9.99568 9.29103 11.0957 9.00269C12.1973 8.71269 13.1423 7.67769 13.3648 6.76602C13.4948 7.89936 13.8898 8.56019 15.054 9.01436C16.2615 9.48436 17.299 8.76519 17.8198 8.30436C18.3407 7.84352 18.6748 6.82019 17.7465 5.69519C17.1065 4.91936 16.839 4.18852 16.7515 3.43102C16.7015 2.99186 16.6565 2.52019 16.3298 2.22019C15.8532 1.78186 15.169 1.64852 14.8298 1.67019Z" stroke="#413DFB" stroke-width="1.3" stroke-linecap="round" stroke-linejoin="round"/>
</svg>
