<svg width="20" height="20" viewBox="0 0 20 20" fill="none" xmlns="http://www.w3.org/2000/svg">
<path d="M9.58314 6.66667H16.8298C17.3506 6.66667 17.6106 6.66667 17.8015 6.75C18.6448 7.1225 18.2681 8.05833 18.1265 8.73167C18.1133 8.7925 18.0861 8.84941 18.047 8.89787C18.0079 8.94634 17.9581 8.98502 17.9015 9.01083C17.6678 9.11847 17.4633 9.28059 17.3053 9.4836C17.1472 9.6866 17.0402 9.92456 16.9931 10.1775L16.499 12.99C16.2823 14.2275 16.2073 15.995 15.124 16.8667C14.3281 17.5 13.1823 17.5 10.8898 17.5H9.10981C6.81814 17.5 5.67147 17.5 4.87647 16.8667C3.79231 15.995 3.71814 14.2275 3.50064 12.99L3.00647 10.1775C2.95942 9.92456 2.85238 9.6866 2.69432 9.4836C2.53627 9.28059 2.33182 9.11847 2.09814 9.01083C2.0415 8.98502 1.99167 8.94634 1.95261 8.89787C1.91355 8.84941 1.88634 8.7925 1.87314 8.73167C1.73147 8.05917 1.35481 7.1225 2.19814 6.75083C2.38897 6.66667 2.64981 6.66667 3.16981 6.66667H6.24981M11.6665 10H8.33314M5.41647 9.16667L8.33314 2.5M12.4998 2.5L14.5831 6.66667" stroke="#7C7C7C" stroke-width="1.5" stroke-linecap="round" stroke-linejoin="round"/>
</svg>
