<svg width="34" height="35" viewBox="0 0 34 35" fill="none" xmlns="http://www.w3.org/2000/svg">
<circle cx="17" cy="18" r="17" fill="#EDF3EA"/>
<path d="M17.0167 10.425C14.2583 10.425 12.0167 12.6667 12.0167 15.425V17.8334C12.0167 18.3417 11.8 19.1167 11.5417 19.55L10.5833 21.1417C9.99166 22.125 10.4 23.2167 11.4833 23.5834C15.075 24.7834 18.95 24.7834 22.5417 23.5834C23.55 23.25 23.9917 22.0584 23.4417 21.1417L22.4833 19.55C22.2333 19.1167 22.0167 18.3417 22.0167 17.8334V15.425C22.0167 12.675 19.7667 10.425 17.0167 10.425Z" stroke="#47862D" stroke-width="1.5" stroke-miterlimit="10" stroke-linecap="round"/>
<path d="M18.5583 10.6667C18.3 10.5917 18.0333 10.5334 17.7583 10.5C16.9583 10.4 16.1917 10.4584 15.475 10.6667C15.7167 10.05 16.3167 9.6167 17.0167 9.6167C17.7167 9.6167 18.3167 10.05 18.5583 10.6667Z" stroke="#47862D" stroke-width="1.5" stroke-miterlimit="10" stroke-linecap="round" stroke-linejoin="round"/>
<path opacity="0.4" d="M19.5167 23.8833C19.5167 25.2583 18.3917 26.3833 17.0167 26.3833C16.3333 26.3833 15.7 26.1 15.25 25.65C14.8 25.2 14.5167 24.5666 14.5167 23.8833" stroke="#47862D" stroke-width="1.5" stroke-miterlimit="10"/>
</svg>
