<svg width="23" height="22" viewBox="0 0 23 22" fill="none" xmlns="http://www.w3.org/2000/svg">
<path d="M19.5999 7.92293L19.2337 7.7192C19.1769 7.68756 19.1489 7.67169 19.1214 7.65524C18.8483 7.49165 18.6182 7.26564 18.4502 6.99523C18.4333 6.96802 18.4174 6.93949 18.3848 6.8831C18.3523 6.82677 18.3358 6.79823 18.3206 6.76998C18.17 6.48866 18.0885 6.17515 18.0836 5.85606C18.0831 5.82398 18.0832 5.79121 18.0843 5.72604L18.0915 5.30078C18.1029 4.62025 18.1087 4.27894 18.013 3.97262C17.9281 3.70053 17.786 3.44993 17.5962 3.23725C17.3817 2.99685 17.0847 2.82534 16.4902 2.48276L15.9964 2.1982C15.4036 1.85658 15.1071 1.68571 14.7923 1.62057C14.5139 1.56294 14.2265 1.56561 13.9491 1.62789C13.6359 1.69819 13.3431 1.87351 12.7579 2.22396L12.7545 2.22555L12.4007 2.43741C12.3448 2.47091 12.3165 2.48779 12.2884 2.50338C12.0101 2.6581 11.6995 2.74365 11.3812 2.75387C11.3492 2.7549 11.3165 2.7549 11.2513 2.7549C11.1865 2.7549 11.1524 2.7549 11.1204 2.75387C10.8015 2.74361 10.4902 2.65759 10.2115 2.50224C10.1834 2.48658 10.1556 2.46956 10.0996 2.4359L9.74349 2.22213C9.15422 1.86836 8.85915 1.69121 8.54427 1.62057C8.2657 1.55807 7.97737 1.55634 7.69791 1.61471C7.38236 1.68062 7.08577 1.85276 6.49258 2.19703L6.48994 2.1982L6.00228 2.48124L5.99688 2.48454C5.40904 2.82572 5.11441 2.99672 4.9017 3.23614C4.71294 3.4486 4.57185 3.69881 4.4874 3.97018C4.39194 4.27691 4.39703 4.61896 4.40853 5.3027L4.41568 5.72736C4.41676 5.79166 4.41864 5.82362 4.41817 5.85525C4.41343 6.17499 4.33086 6.48914 4.17974 6.77096C4.1648 6.79883 4.1487 6.8267 4.11654 6.88237C4.08436 6.93809 4.06877 6.96579 4.05209 6.99268C3.88336 7.26452 3.65214 7.49186 3.37733 7.65572C3.35015 7.67193 3.3215 7.68752 3.26521 7.71871L2.90365 7.91908C2.30208 8.25245 2.00137 8.41928 1.78256 8.65669C1.58898 8.86672 1.44275 9.11585 1.35349 9.38717C1.25259 9.69387 1.25267 10.0378 1.25424 10.7255L1.25551 11.2877C1.25706 11.9708 1.25919 12.3122 1.36032 12.6168C1.44979 12.8863 1.59495 13.134 1.78744 13.3427C2.00502 13.5787 2.30274 13.7445 2.89974 14.0766L3.25808 14.276C3.31907 14.3099 3.34976 14.3266 3.37917 14.3444C3.65148 14.5083 3.88089 14.735 4.04818 15.0053C4.06625 15.0345 4.0836 15.0648 4.1183 15.1255C4.15256 15.1853 4.17009 15.2152 4.18594 15.2452C4.33261 15.5229 4.41114 15.8315 4.41649 16.1455C4.41707 16.1794 4.41658 16.2137 4.41541 16.2827L4.40853 16.6902C4.39695 17.3763 4.3919 17.7197 4.48792 18.0273C4.57287 18.2994 4.71484 18.55 4.90463 18.7627C5.11915 19.0031 5.41655 19.1745 6.01107 19.5171L6.50478 19.8015C7.09763 20.1432 7.39395 20.3138 7.70869 20.379C7.98714 20.4366 8.27464 20.4344 8.55209 20.3721C8.86567 20.3017 9.15948 20.1258 9.74642 19.7743L10.1002 19.5625C10.1562 19.5289 10.1846 19.5121 10.2126 19.4965C10.4909 19.3418 10.8012 19.2558 11.1195 19.2456C11.1515 19.2446 11.1842 19.2446 11.2494 19.2446C11.3148 19.2446 11.3474 19.2446 11.3795 19.2456C11.6984 19.2559 12.0107 19.3422 12.2894 19.4975C12.3139 19.5112 12.3385 19.526 12.3816 19.5519L12.7578 19.7777C13.3471 20.1315 13.6416 20.3081 13.9565 20.3788C14.235 20.4413 14.5236 20.4438 14.8031 20.3855C15.1185 20.3196 15.4157 20.1471 16.0086 19.803L16.5036 19.5157C17.0918 19.1743 17.3867 19.0031 17.5995 18.7636C17.7883 18.5512 17.9296 18.3011 18.014 18.0297C18.1088 17.7252 18.1031 17.3858 18.0917 16.7119L18.0843 16.2724C18.0832 16.2081 18.0831 16.1761 18.0836 16.1445C18.0883 15.8247 18.1695 15.5104 18.3206 15.2286C18.3356 15.2007 18.3518 15.1726 18.3838 15.1171C18.416 15.0615 18.4327 15.0337 18.4494 15.0068C18.6181 14.7349 18.8495 14.5074 19.1244 14.3435C19.1512 14.3275 19.1789 14.3122 19.2338 14.2818L19.2357 14.2809L19.5972 14.0805C20.1988 13.7472 20.5001 13.5801 20.7189 13.3427C20.9125 13.1327 21.0585 12.8839 21.1478 12.6126C21.2481 12.3077 21.2473 11.9658 21.2458 11.2861L21.2445 10.7119C21.2429 10.0287 21.2421 9.6874 21.141 9.38277C21.0515 9.11328 20.9055 8.86561 20.713 8.65685C20.4957 8.42111 20.1975 8.25526 19.6017 7.92378L19.5999 7.92293Z" stroke="#7D7D7D" stroke-width="2" stroke-linecap="round" stroke-linejoin="round"/>
<path d="M7.25033 11C7.25033 13.2091 9.04119 15 11.2503 15C13.4595 15 15.2503 13.2091 15.2503 11C15.2503 8.79082 13.4595 6.99996 11.2503 6.99996C9.04119 6.99996 7.25033 8.79082 7.25033 11Z" stroke="#7D7D7D" stroke-width="2" stroke-linecap="round" stroke-linejoin="round"/>
</svg>
