<svg width="48" height="48" viewBox="0 0 48 48" fill="none" xmlns="http://www.w3.org/2000/svg">
<rect width="48" height="48" rx="8" fill="#EAEAFF"/>
<path fill-rule="evenodd" clip-rule="evenodd" d="M24 27.75C24.4142 27.75 24.75 27.4142 24.75 27V16.0274L26.4306 17.9881C26.7001 18.3026 27.1736 18.339 27.4881 18.0694C27.8026 17.7999 27.839 17.3264 27.5694 17.0119L24.5694 13.5119C24.427 13.3457 24.2189 13.25 24 13.25C23.7811 13.25 23.573 13.3457 23.4306 13.5119L20.4306 17.0119C20.161 17.3264 20.1974 17.7999 20.5119 18.0694C20.8264 18.339 21.2999 18.3026 21.5695 17.9881L23.25 16.0274V27C23.25 27.4142 23.5858 27.75 24 27.75Z" fill="#1B1B1F"/>
<path d="M28 21C27.2978 21 26.9467 21 26.6945 21.1685C26.5853 21.2415 26.4915 21.3352 26.4186 21.4445C26.25 21.6967 26.25 22.0478 26.25 22.75V27C26.25 28.2426 25.2427 29.25 24 29.25C22.7574 29.25 21.75 28.2426 21.75 27V22.75C21.75 22.0478 21.75 21.6966 21.5815 21.4444C21.5085 21.3352 21.4148 21.2415 21.3056 21.1685C21.0534 21 20.7023 21 20 21C17.1716 21 15.7574 21 14.8787 21.8787C14 22.7574 14 24.1714 14 26.9998V27.9998C14 30.8282 14 32.2424 14.8787 33.1211C15.7574 33.9998 17.1716 33.9998 20 33.9998H28C30.8284 33.9998 32.2426 33.9998 33.1213 33.1211C34 32.2424 34 30.8282 34 27.9998V26.9998C34 24.1714 34 22.7574 33.1213 21.8787C32.2426 21 30.8284 21 28 21Z" fill="#1B1B1F"/>
</svg>
