<svg width="36" height="36" viewBox="0 0 36 36" fill="none" xmlns="http://www.w3.org/2000/svg">
<rect width="36" height="36" rx="18" fill="#E6ECF2"/>
<g clip-path="url(#clip0_359_3148)">
<path d="M22.1663 14.6668V12.1668C22.1663 11.9458 22.0785 11.7339 21.9223 11.5776C21.766 11.4213 21.554 11.3335 21.333 11.3335H12.9997C12.5576 11.3335 12.1337 11.5091 11.8212 11.8217C11.5086 12.1342 11.333 12.5581 11.333 13.0002M11.333 13.0002C11.333 13.4422 11.5086 13.8661 11.8212 14.1787C12.1337 14.4912 12.5576 14.6668 12.9997 14.6668H22.9997C23.2207 14.6668 23.4327 14.7546 23.5889 14.9109C23.7452 15.0672 23.833 15.2791 23.833 15.5002V18.0002M11.333 13.0002V23.0002C11.333 23.4422 11.5086 23.8661 11.8212 24.1787C12.1337 24.4912 12.5576 24.6668 12.9997 24.6668H22.9997C23.2207 24.6668 23.4327 24.579 23.5889 24.4228C23.7452 24.2665 23.833 24.0545 23.833 23.8335V21.3335" stroke="#0073F2" stroke-width="1.5" stroke-linecap="round" stroke-linejoin="round"/>
<path d="M24.667 18V21.3333H21.3337C20.8916 21.3333 20.4677 21.1577 20.1551 20.8452C19.8426 20.5326 19.667 20.1087 19.667 19.6667C19.667 19.2246 19.8426 18.8007 20.1551 18.4882C20.4677 18.1756 20.8916 18 21.3337 18H24.667Z" stroke="#0073F2" stroke-width="1.5" stroke-linecap="round" stroke-linejoin="round"/>
</g>
<defs>
<clipPath id="clip0_359_3148">
<rect width="20" height="20" fill="white" transform="translate(8 8)"/>
</clipPath>
</defs>
</svg>
