<svg width="25" height="24" viewBox="0 0 25 24" fill="none" xmlns="http://www.w3.org/2000/svg">
<g clip-path="url(#clip0_280_4868)">
<path d="M17.25 8V5C17.25 4.73478 17.1446 4.48043 16.9571 4.29289C16.7696 4.10536 16.5152 4 16.25 4H6.25C5.71957 4 5.21086 4.21071 4.83579 4.58579C4.46071 4.96086 4.25 5.46957 4.25 6M4.25 6C4.25 6.53043 4.46071 7.03914 4.83579 7.41421C5.21086 7.78929 5.71957 8 6.25 8H18.25C18.5152 8 18.7696 8.10536 18.9571 8.29289C19.1446 8.48043 19.25 8.73478 19.25 9V12M4.25 6V18C4.25 18.5304 4.46071 19.0391 4.83579 19.4142C5.21086 19.7893 5.71957 20 6.25 20H18.25C18.5152 20 18.7696 19.8946 18.9571 19.7071C19.1446 19.5196 19.25 19.2652 19.25 19V16" stroke="#7D7D7D" stroke-width="1.2" stroke-linecap="round" stroke-linejoin="round"/>
<path d="M20.25 12V16H16.25C15.7196 16 15.2109 15.7893 14.8358 15.4142C14.4607 15.0391 14.25 14.5304 14.25 14C14.25 13.4696 14.4607 12.9609 14.8358 12.5858C15.2109 12.2107 15.7196 12 16.25 12H20.25Z" stroke="#7D7D7D" stroke-width="1.2" stroke-linecap="round" stroke-linejoin="round"/>
</g>
<defs>
<clipPath id="clip0_280_4868">
<rect width="24" height="24" fill="white" transform="translate(0.25)"/>
</clipPath>
</defs>
</svg>
